#!OML:ASF F:\Work\Patient Classification 1\justin\Session 1\justin.ASF
:FULLY-SPECIFIED
:DEGREES
1167
root 1.48102 16.6586 0.400097 0.0407345 18.5549 3.93092
lowerback 13.031 -6.62374 -4.91899
upperback -1.17515 -9.20119 5.12792
thorax -6.87942 -4.23011 9.91713
lowerneck -15.6262 -5.43025 -12.0805
upperneck 20.698 -7.72748 13.5025
head 10.1912 -3.09335 5.78408
rclavicle -1.19271e-015 7.95139e-015
rhumerus -15.813 -23.3449 -50.3625
rradius 137.144
rwrist -28.7108
rhand -13.6947 26.5502
rfingers 7.12502
rthumb 12.4235 -3.06057
lclavicle -1.19271e-015 7.95139e-015
lhumerus 4.04985 -22.5504 94.7408
lradius 128.741
lwrist 6.70249
lhand -12.4023 6.43615
lfingers 7.12502
lthumb 13.6693 35.9673
rfemur -38.0133 5.41713 -1.34495
rtibia 39.195
rfoot 4.54752 13.3757
rtoes -16.7529
lfemur 4.4928 23.9241 -19.1207
ltibia 38.4157
lfoot -33.773 12.2269
ltoes -20.307
1168
root 1.4864 16.6614 0.454537 0.220883 18.2538 3.80291
lowerback 12.905 -6.83894 -4.99907
upperback -1.17343 -9.48212 5.37178
thorax -6.69693 -4.37637 10.2423
lowerneck -15.4317 -5.17803 -11.7997
upperneck 20.544 -7.342 13.0805
head 10.0105 -2.94588 5.63034
rclavicle -6.4605e-014 -6.36111e-015
rhumerus -18.0494 -24.6031 -48.5601
rradius 136.974
rwrist -30.4216
rhand -13.9528 26.4859
rfingers 7.12502
rthumb 12.1746 -3.1398
lclavicle -6.4605e-014 -6.36111e-015
lhumerus 3.43242 -21.0438 94.1693
lradius 129.385
lwrist 6.9275
lhand -12.5494 6.47943
lfingers 7.12502
lthumb 13.5276 36.02
rfemur -38.6753 5.61484 -1.20158
rtibia 39.5529
rfoot 3.90842 14.4308
rtoes -20.2068
lfemur 4.59018 24.0972 -18.9424
ltibia 38.1593
lfoot -33.7615 12.1269
ltoes -20.3411
1169
root 1.51644 16.6576 0.489255 0.498303 18.4281 4.28726
lowerback 13.2063 -7.13133 -5.08059
upperback -1.2891 -9.89532 5.34834
thorax -6.899 -4.55932 10.3799
lowerneck -15.3171 -4.92179 -11.5169
upperneck 20.4604 -6.98669 12.8019
head 9.88429 -2.79324 5.52721
rclavicle 1.07543e-013 6.36111e-015
rhumerus -20.8536 -26.1743 -46.2077
rradius 136.875
rwrist -32.3087
rhand -13.8219 25.9868
rfingers 7.12502
rthumb 12.3009 -3.63141
lclavicle 1.07543e-013 6.36111e-015
lhumerus 3.00366 -19.6289 93.4559
lradius 130.133
lwrist 6.68475
lhand -12.7162 7.12461
lfingers 7.12502
lthumb 13.3667 36.6758
rfemur -38.9704 4.68807 -1.64773
rtibia 39.7562
rfoot 4.4271 15.7755
rtoes -18.5727
lfemur 4.83472 23.8966 -19.5433
ltibia 37.8067
lfoot -33.619 12.3913
ltoes -21.2552
1170
root 1.51886 16.6572 0.552683 0.584525 18.0443 4.13939
lowerback 13.1678 -7.25017 -4.99973
upperback -0.875494 -10.0179 5.6226
thorax -6.36653 -4.66907 10.5918
lowerneck -16.7553 -4.81922 -11.4521
upperneck 20.7036 -6.69539 12.6493
head 10.1962 -2.61937 5.50235
rclavicle -3.20043e-014 4.6118e-014
rhumerus -22.9835 -28.2553 -44.0174
rradius 136.627
rwrist -34.451
rhand -12.8962 25.238
rfingers 7.12502
rthumb 13.1933 -4.32457
lclavicle -3.20043e-014 4.6118e-014
lhumerus 3.73136 -17.9167 92.2457
lradius 130.785
lwrist 6.2438
lhand -12.7369 7.88342
lfingers 7.12502
lthumb 13.3468 37.436
rfemur -39.5745 5.26377 -1.55708
rtibia 39.8663
rfoot 4.35917 16.1595
rtoes -17
lfemur 5.06685 23.9727 -19.3601
ltibia 37.4382
lfoot -33.3176 12.7831
ltoes -22.2503
1171
root 1.53113 16.6544 0.61357 0.755304 17.7473 4.17392
lowerback 13.1522 -7.41446 -5.12397
upperback -0.953285 -10.2458 5.80967
thorax -6.33815 -4.77678 10.899
lowerneck -16.0769 -4.4552 -11.2092
upperneck 20.4898 -6.21593 12.3319
head 9.90188 -2.43667 5.40743
rclavicle 1.88845e-014 6.36111e-015
rhumerus -26.1503 -29.491 -41.2186
rradius 136.222
rwrist -36.4315
rhand -12.2807 24.9934
rfingers 7.12502
rthumb 13.7865 -4.52976
lclavicle 1.88845e-014 6.36111e-015
lhumerus 3.19446 -15.8156 91.3659
lradius 131.317
lwrist 6.27946
lhand -12.6421 7.4062
lfingers 7.12502
lthumb 13.4382 36.9527
rfemur -40.1313 5.48388 -1.61317
rtibia 39.8794
rfoot 3.70087 16.7912
rtoes -17.3704
lfemur 5.26337 23.7761 -19.5299
ltibia 37.0404
lfoot -33.1591 13.3168
ltoes -22.9395
1172
root 1.54506 16.6589 0.674126 1.01175 17.5763 4.39103
lowerback 13.1648 -7.61153 -5.31956
upperback -0.99874 -10.5331 5.94678
thorax -6.27187 -4.91584 11.1979
lowerneck -15.7111 -4.15474 -10.909
upperneck 20.2953 -5.80194 11.9725
head 9.68509 -2.27208 5.27604
rclavicle 1.35571e-013 -1.90833e-014
rhumerus -29.3294 -30.4825 -38.4545
rradius 135.556
rwrist -37.6679
rhand -12.2739 25.0104
rfingers 7.12502
rthumb 13.7931 -4.51238
lclavicle 1.35571e-013 -1.90833e-014
lhumerus 2.73078 -13.5403 90.3218
lradius 131.925
lwrist 6.61049
lhand -12.6021 7.15674
lfingers 7.12502
lthumb 13.4767 36.7007
rfemur -40.6037 5.39983 -1.78874
rtibia 39.8164
rfoot 2.21058 17.3969
rtoes -20.5434
lfemur 5.39367 23.5506 -19.8757
ltibia 36.7493
lfoot -33.0787 13.6122
ltoes -23.4716
